<svg enable-background="new 0 0 75 75" height="75" viewBox="0 0 75 75" width="75" xmlns="http://www.w3.org/2000/svg" xmlns:xlink="http://www.w3.org/1999/xlink"><linearGradient id="a"><stop offset="0" stop-color="#00a9e1"/><stop offset=".0112" stop-color="#01a7df"/><stop offset=".1992" stop-color="#0985c4"/><stop offset=".3911" stop-color="#106aaf"/><stop offset=".5863" stop-color="#1457a0"/><stop offset=".7866" stop-color="#174c97"/><stop offset="1" stop-color="#184894"/></linearGradient><linearGradient id="b" gradientUnits="userSpaceOnUse" x1="7.3252" x2="75.1125" xlink:href="#a" y1="-3.8252" y2="63.9622"/><linearGradient id="c" gradientUnits="userSpaceOnUse" x1="7.5972" x2="75.3845" xlink:href="#a" y1="-4.0972" y2="63.6902"/><linearGradient id="d" gradientUnits="userSpaceOnUse" x1="8.9609" x2="76.7483" xlink:href="#a" y1="-5.4609" y2="62.3264"/><linearGradient id="e" gradientUnits="userSpaceOnUse" x1="-3.9775" x2="63.8098" xlink:href="#a" y1="7.4775" y2="75.2649"/><linearGradient id="f" gradientUnits="userSpaceOnUse" x1="6.1455" x2="73.9329" xlink:href="#a" y1="-2.6455" y2="65.1418"/><linearGradient id="g" gradientUnits="userSpaceOnUse" x1="6.0078" x2="73.7952" xlink:href="#a" y1="-2.5078" y2="65.2795"/><path d="m37.421 74.562c-.333 0-.658-.096-.952-.281-.033-.021-.064-.045-.093-.071l-20.797-18.683c-6.53-5.86-10.281-14.257-10.292-23.038l-.034-24.316c-.02-.467.168-.953.516-1.305.348-.353.821-.549 1.332-.535.459.013 3.28.055 5.825.094 1.989.03 3.811.058 4.213.067.387.008.693.329.685.715-.008.387-.344.687-.715.685-.401-.009-2.219-.036-4.204-.066-2.553-.039-5.382-.082-5.843-.094-.173 0-.252.073-.297.119-.044.043-.119.142-.113.291l.035 24.343c.01 8.384 3.592 16.403 9.827 22l20.743 18.635c.136.067.288.061.412-.024l20.6-18.136c6.378-5.612 10.039-13.704 10.047-22.2l.031-24.543c.006-.175-.068-.273-.113-.318s-.153-.131-.294-.114c-8.797.33-15.146.286-18.214-.163-5.46-.793-9.301-3.87-11.596-5.708-.139-.111-.326-.111-.463.001-2.289 1.861-6.122 4.978-11.493 5.638-.379.046-.733-.226-.78-.609-.047-.384.226-.733.609-.78 4.971-.611 8.608-3.568 10.781-5.335.649-.528 1.562-.531 2.219-.008 2.186 1.75 5.841 4.678 10.925 5.417 2.965.435 9.264.476 17.959.149.526-.006.985.172 1.336.523.352.351.542.837.523 1.335l-.03 24.518c-.008 8.897-3.843 17.371-10.521 23.249l-20.673 18.189c-.355.242-.732.359-1.101.359z" fill="url(#b)"/><path d="m17.124 7.894c-.387 0-.7-.313-.7-.7s.313-.7.7-.7c1.259 0 2.414-.011 3.462-.03.401-.055.706.3.712.687.007.387-.3.706-.687.712-1.055.02-2.219.031-3.487.031z" fill="url(#c)"/><path d="m38.973 35.994c-4.141 0-7.027-4.998-7.705-7.016-.042-.027-.09-.055-.136-.084-.269-.167-.431-.268-.543-.455-.998-1.764-1.262-3.162-.792-4.168.23-.494.583-.785.886-.955-.002-.751.05-2.226.428-3.658.015-.056 1.493-5.264 7.861-5.264 6.367 0 7.845 5.208 7.858 5.26.38 1.435.432 2.91.43 3.662.302.169.653.461.884.954.47 1.006.207 2.404-.782 4.155-.109.196-.275.299-.552.471-.045.028-.091.056-.132.082-.672 2.006-3.564 7.016-7.705 7.016zm-7.237-8.373c.04.026.087.055.135.084.346.215.575.357.67.655.399 1.39 2.901 6.233 6.431 6.233 3.525 0 6.031-4.843 6.426-6.213.095-.313.337-.464.674-.673.048-.03.095-.058.135-.084.908-1.651.816-2.426.677-2.743-.144-.327-.442-.405-.476-.413-.33-.077-.575-.385-.558-.723.001-.02.098-1.952-.372-3.728-.047-.167-1.236-4.221-6.506-4.221-5.309 0-6.497 4.182-6.509 4.224-.47 1.781-.373 3.706-.371 3.725.019.351-.226.662-.572.726-.019.005-.319.083-.462.41-.139.318-.231 1.092.678 2.741z" fill="url(#d)"/><path d="m42.275 48.995c-12.504 0-19.324-1.4-19.608-1.46-.336-.071-.572-.375-.556-.719.355-7.479 5.015-9.801 8.49-10.898 2.707-.854 4.163-2.261 4.177-2.275.275-.271.717-.267.989.008.271.274.27.716-.004.988-.068.067-1.69 1.652-4.741 2.615-3.429 1.083-6.971 3.009-7.473 9.022 1.922.335 8.437 1.319 18.726 1.319.387 0 .7.313.7.7s-.313.7-.7.7z" fill="url(#e)"/><path d="m44.484 36.134c-.117 0-.235-.03-.345-.092-1.266-.719-1.933-1.377-1.961-1.405-.273-.272-.274-.716-.002-.99s.714-.275.988-.004c.006.005.578.563 1.666 1.182.336.191.454.618.263.954-.128.228-.364.355-.609.355z" fill="url(#f)"/><path d="m47.899 45.668c-.165 0-.331-.059-.464-.177l-3.414-3.025c-.29-.256-.316-.698-.06-.987s.699-.316.987-.06l2.911 2.579 5.194-5.41c.269-.28.711-.288.989-.021.279.268.288.711.021.989l-5.66 5.896c-.135.144-.319.216-.504.216z" fill="url(#g)"/></svg>