<svg enable-background="new 0 0 75 75" height="75" viewBox="0 0 75 75" width="75" xmlns="http://www.w3.org/2000/svg" xmlns:xlink="http://www.w3.org/1999/xlink"><linearGradient id="a"><stop offset="0" stop-color="#00a9e1"/><stop offset=".0112" stop-color="#01a7df"/><stop offset=".1992" stop-color="#0985c4"/><stop offset=".3911" stop-color="#106aaf"/><stop offset=".5863" stop-color="#1457a0"/><stop offset=".7866" stop-color="#174c97"/><stop offset="1" stop-color="#184894"/></linearGradient><linearGradient id="b" gradientUnits="userSpaceOnUse" x1="5.0527" x2="66.7867" xlink:href="#a" y1="7.7812" y2="69.5152"/><linearGradient id="c" gradientUnits="userSpaceOnUse" x1="-6.1191" x2="55.6148" xlink:href="#a" y1="18.9531" y2="80.687"/><linearGradient id="d" gradientUnits="userSpaceOnUse" x1="-15.3945" x2="46.3394" xlink:href="#a" y1="28.2285" y2="89.9624"/><linearGradient id="e" gradientUnits="userSpaceOnUse" x1="-9.1948" x2="52.5391" xlink:href="#a" y1="22.0288" y2="83.7627"/><linearGradient id="f" gradientUnits="userSpaceOnUse" x1="9.5854" x2="71.3194" xlink:href="#a" y1="3.2485" y2="64.9825"/><path d="m69.322 64.474h-63.644c-2.84 0-5.15-2.311-5.15-5.15v-38.19c0-2.84 2.311-5.15 5.15-5.15h63.645c2.84 0 5.15 2.311 5.15 5.15v38.19c0 2.839-2.311 5.15-5.151 5.15zm-63.644-47.091c-2.068 0-3.75 1.682-3.75 3.75v38.19c0 2.067 1.682 3.75 3.75 3.75h63.645c2.067 0 3.75-1.683 3.75-3.75v-38.19c0-2.068-1.683-3.75-3.75-3.75z" fill="url(#b)"/><path d="m40.591 50.874h-30.978c-.387 0-.7-.313-.7-.7s.313-.7.7-.7h30.978c.387 0 .7.313.7.7s-.313.7-.7.7z" fill="url(#c)"/><path d="m16.057 57.158h-6.444c-.387 0-.7-.313-.7-.7s.313-.7.7-.7h6.443c.387 0 .7.313.7.7s-.313.7-.699.7z" fill="url(#d)"/><path d="m28.455 57.158h-6.442c-.387 0-.7-.313-.7-.7s.313-.7.7-.7h6.442c.387 0 .7.313.7.7s-.313.7-.7.7z" fill="url(#e)"/><path d="m61.849 57.158h-4.39c-2.118 0-3.841-1.724-3.841-3.842 0-2.119 1.723-3.843 3.841-3.843h4.39c2.117 0 3.84 1.724 3.84 3.843-.001 2.119-1.723 3.842-3.84 3.842zm-4.39-6.284c-1.346 0-2.44 1.096-2.44 2.442s1.095 2.441 2.44 2.441h4.39c1.346 0 2.439-1.095 2.439-2.441s-1.094-2.442-2.439-2.442z" fill="url(#f)"/></svg>