<svg enable-background="new 0 0 75 75" height="75" viewBox="0 0 75 75" width="75" xmlns="http://www.w3.org/2000/svg" xmlns:xlink="http://www.w3.org/1999/xlink"><linearGradient id="a"><stop offset="0" stop-color="#00a9e1"/><stop offset=".0112" stop-color="#01a7df"/><stop offset=".1992" stop-color="#0985c4"/><stop offset=".3911" stop-color="#106aaf"/><stop offset=".5863" stop-color="#1457a0"/><stop offset=".7866" stop-color="#174c97"/><stop offset="1" stop-color="#184894"/></linearGradient><linearGradient id="b" gradientUnits="userSpaceOnUse" x1="7.5552" x2="63.2545" xlink:href="#a" y1="7.5564" y2="63.2556"/><linearGradient id="c" gradientUnits="userSpaceOnUse" x1="7.5557" x2="63.255" xlink:href="#a" y1="7.5559" y2="63.2551"/><path d="m63 12c-6.8-6.8-15.9-10.5-25.5-10.5s-18.7 3.7-25.5 10.5c-14.1 14.1-14.1 36.9 0 51l.2.2c7 6.9 16.1 10.3 25.3 10.3s18.5-3.5 25.5-10.5c14.1-14.1 14.1-36.9 0-51zm-1 50c-13.3 13.3-34.8 13.5-48.3.7l9-9c.3-.3.3-.7 0-1s-.7-.3-1 0l-9 9c-13.2-13.6-13.1-35.3.3-48.7 6.5-6.5 15.2-10.1 24.5-10.1 9.1 0 17.7 3.5 24.2 9.9l-8.5 8.5c-.3.3-.3.7 0 1 .1.1.3.2.5.2s.4-.1.5-.2l8.5-8.5c12.8 13.5 12.6 34.9-.7 48.2z" fill="url(#b)"/><path d="m49.7 23.4h-11.5v-4.4c0-.4-.3-.7-.7-.7s-.7.3-.7.7v4.4h-2.6c-4.1 0-7.4 3.3-7.4 7.4s3.3 7.4 7.4 7.4h2.6v12h-11.5c-.4 0-.7.3-.7.7s.3.7.7.7h11.5v5.4c0 .4.3.7.7.7s.7-.3.7-.7v-5.4h3.2c4.1 0 7.4-3.3 7.4-7.4s-3.3-7.4-7.4-7.4h-3.2v-12h11.5c.4 0 .7-.3.7-.7s-.4-.7-.7-.7zm-8.3 14.8c3.3 0 6 2.7 6 6s-2.7 6-6 6h-3.2v-12zm-4.6-1.4h-2.6c-3.3 0-6-2.7-6-6s2.7-6 6-6h2.6z" fill="url(#c)"/></svg>