<svg enable-background="new 0 0 75 75" height="75" viewBox="0 0 75 75" width="75" xmlns="http://www.w3.org/2000/svg" xmlns:xlink="http://www.w3.org/1999/xlink"><linearGradient id="a"><stop offset="0" stop-color="#00a9e1"/><stop offset=".0112" stop-color="#01a7df"/><stop offset=".1992" stop-color="#0985c4"/><stop offset=".3911" stop-color="#106aaf"/><stop offset=".5863" stop-color="#1457a0"/><stop offset=".7866" stop-color="#174c97"/><stop offset="1" stop-color="#184894"/></linearGradient><linearGradient id="b" gradientUnits="userSpaceOnUse" x1="12.8188" x2="81.4631" xlink:href="#a" y1="-10.3188" y2="58.3254"/><linearGradient id="c" gradientUnits="userSpaceOnUse" x1="-.0371" x2="68.6071" xlink:href="#a" y1="2.5371" y2="71.1814"/><linearGradient id="d" gradientUnits="userSpaceOnUse" x1="-30.2227" x2="38.4216" xlink:href="#a" y1="32.7227" y2="101.3669"/><linearGradient id="e" gradientUnits="userSpaceOnUse" x1="15.46" x2="84.1042" xlink:href="#a" y1="-12.96" y2="55.6843"/><linearGradient id="f" gradientUnits="userSpaceOnUse" x1="8.7681" x2="77.4123" xlink:href="#a" y1="-6.2681" y2="62.3762"/><linearGradient id="g" gradientUnits="userSpaceOnUse" x1="-2.8613" x2="65.7829" xlink:href="#a" y1="5.3613" y2="74.0056"/><linearGradient id="h" gradientUnits="userSpaceOnUse" x1="-7.1572" x2="61.487" xlink:href="#a" y1="9.6572" y2="78.3015"/><linearGradient id="i" gradientUnits="userSpaceOnUse" x1="-4.6187" x2="64.0256" xlink:href="#a" y1="7.1187" y2="75.7629"/><linearGradient id="j" gradientUnits="userSpaceOnUse" x1="1.0332" x2="69.6774" xlink:href="#a" y1="1.4668" y2="70.111"/><path d="m2.244 16.634c-.135 0-.271-.039-.392-.12-.32-.217-.404-.652-.188-.972l5.657-8.371c1.017-2.141 3.198-3.521 5.572-3.521h49.159c2.373 0 4.554 1.38 5.572 3.521l5.656 8.371c.217.32.132.756-.188.972-.32.215-.755.132-.972-.188l-5.685-8.416c-.021-.031-.039-.063-.055-.097-.779-1.678-2.478-2.763-4.327-2.763h-49.159c-1.851 0-3.549 1.084-4.327 2.762-.016.034-.034.066-.055.098l-5.688 8.416c-.135.2-.355.308-.58.308z" fill="url(#b)"/><path d="m68.75 71.351h-57.656c-.387 0-.7-.313-.7-.7s.313-.7.7-.7h57.656c2.187 0 3.965-1.777 3.965-3.963v-47.49c0-2.185-1.778-3.963-3.965-3.963h-62.502c-2.185 0-3.962 1.778-3.962 3.963v45.081c0 .387-.313.7-.7.7s-.7-.313-.7-.7v-45.081c0-2.957 2.406-5.363 5.363-5.363h62.501c2.958 0 5.365 2.406 5.365 5.363v47.49c0 2.956-2.407 5.363-5.365 5.363z" fill="url(#c)"/><path d="m11.094 71.351h-4.846c-1.396 0-2.718-.533-3.723-1.502-.278-.268-.287-.711-.018-.989.268-.278.71-.286.99-.019.743.716 1.72 1.109 2.751 1.109h4.847c.387 0 .7.313.7.7s-.314.701-.701.701z" fill="url(#d)"/><path d="m43.722 14.23c-.005 0-.012 0-.02 0h-10.729c-.21 0-.41-.095-.543-.258-.133-.164-.185-.378-.143-.584l1.907-9.18c.068-.325.354-.558.686-.558h6.865c.33 0 .616.231.685.554l1.924 9.023c.044.092.068.195.068.303 0 .387-.314.7-.7.7zm-9.889-1.4h9.003l-1.658-7.78h-5.728z" fill="url(#e)"/><path d="m32.973 33.47c-.135 0-.27-.04-.386-.116-.196-.129-.314-.349-.314-.584v-18.936c0-.387.313-.7.7-.7h10.729c.387 0 .7.313.7.7v18.936c0 .387-.313.7-.7.7h-3.477c-.144 0-.283-.044-.401-.126l-2.434-1.701-4.143 1.771c-.087.037-.181.056-.274.056zm7.473-1.401h2.556v-17.534h-9.329v17.174l3.524-1.506c.221-.095.478-.068.676.07z" fill="url(#f)"/><path d="m20.225 23.061h-12.173c-.387 0-.7-.313-.7-.7s.313-.7.7-.7h12.173c.387 0 .7.313.7.7s-.313.7-.7.7z" fill="url(#g)"/><path d="m14.138 28.61h-6.086c-.387 0-.7-.313-.7-.7s.313-.7.7-.7h6.086c.387 0 .7.313.7.7s-.313.7-.7.7z" fill="url(#h)"/><path d="m37.553 60.405c-.019 0-.039-.001-.058-.003-2.76-.225-5.266-1.509-7.057-3.616-1.793-2.112-2.656-4.795-2.43-7.553.225-2.758 1.511-5.265 3.623-7.058 2.109-1.793 4.8-2.654 7.55-2.43 2.758.226 5.265 1.512 7.059 3.622 1.792 2.11 2.653 4.794 2.426 7.556-.031.385-.369.678-.755.64-.385-.031-.672-.369-.64-.755.196-2.389-.549-4.709-2.099-6.534-1.552-1.825-3.72-2.938-6.104-3.134-2.399-.188-4.707.553-6.53 2.102-1.827 1.552-2.939 3.72-3.134 6.105-.196 2.386.55 4.705 2.102 6.532 1.548 1.822 3.715 2.933 6.103 3.128.386.031.673.369.641.754-.03.367-.336.644-.697.644z" fill="url(#i)"/><path d="m48.239 52.759c-.161 0-.322-.055-.454-.167l-3.853-3.279c-.294-.251-.329-.692-.079-.987.252-.295.694-.329.987-.079l3.319 2.826 2.926-3.434c.252-.295.694-.329.987-.079.294.251.329.693.079.987l-3.38 3.966c-.137.162-.334.246-.532.246z" fill="url(#j)"/></svg>